<?xml version="1.0" encoding="UTF-8"?>
<svg id="Capa_2" data-name="Capa 2" xmlns="http://www.w3.org/2000/svg" viewBox="0 0 56.31 42.85">
  <defs>
    <style>
      .cls-1 {
        fill: #1b9cfc;
      }
    </style>
  </defs>
  <g id="Capa_2-2" data-name="Capa 2">
    <g id="Capa_1-2" data-name="Capa 1-2">
      <g>
        <path class="cls-1" d="M10.38,42.85c-4.11,0-7.02-1.63-8.73-4.9C-.07,34.69-.44,30.24.52,24.63c.91-4.89,2.62-8.72,5.14-11.51,2.51-2.78,5.66-4.18,9.45-4.18,2.69,0,4.83.5,6.4,1.51,1.58,1.01,2.68,2.52,3.32,4.55.64,2.03.82,4.55.55,7.57l-.96,3.08c.55-3.11.19-5.57-1.06-7.4s-3.28-2.74-6.06-2.74-4.84.87-6.44,2.6c-1.6,1.74-2.67,4.18-3.22,7.33-.64,3.38-.41,6.01.69,7.88,1.1,1.87,3.08,2.81,5.96,2.81,1.73,0,3.3-.39,4.69-1.16,1.39-.77,2.56-1.91,3.49-3.39.94-1.48,1.56-3.28,1.89-5.38l-.07,3.01c-.59,2.19-1.31,4.13-2.16,5.82s-1.85,3.12-3.01,4.28c-1.16,1.16-2.47,2.05-3.9,2.64-1.44.59-3.05.89-4.83.89h0ZM21.55,41.96l1.92-10.62,3.77-21.58h7.4l-5.69,32.2h-7.4ZM22.71,32.85l.34-1.85h1.37l-.27,1.85h-1.44,0ZM24.9,20.72l.2-1.71h1.71l-.34,1.71h-1.58Z"/>
        <path class="cls-1" d="M36.37,0l-7.4,41.99h-7.4L28.72,1.43c.15-.83.86-1.43,1.7-1.43,0,0,5.95,0,5.95,0ZM30.21,25.48l16.15-15.1c.4-.38.94-.59,1.49-.59h8.46c0,.09-.04.17-.1.23l-21.13,18.47h-7.74l.96-5.48h7.53l15.69,18.84v.14h-8.7l-13.22-16.37.62-.14h0Z"/>
      </g>
    </g>
  </g>
</svg>