<?xml version="1.0" encoding="UTF-8"?>
<svg id="Capa_2" data-name="Capa 2" xmlns="http://www.w3.org/2000/svg" xmlns:xlink="http://www.w3.org/1999/xlink" viewBox="0 0 672.43 129.38">
  <defs>
    <style>
      .cls-1 {
        fill: url(#Degradado_sin_nombre_6);
      }

      .cls-2 {
        fill: #fff;
      }

      .cls-3 {
        fill: none;
      }

      .cls-4 {
        clip-path: url(#clippath-1);
      }

      .cls-5 {
        fill: url(#Degradado_sin_nombre_7);
      }

      .cls-6 {
        fill: #b3b3b3;
      }

      .cls-7 {
        clip-path: url(#clippath-2);
      }

      .cls-8 {
        fill: url(#Degradado_sin_nombre_8);
      }

      .cls-9 {
        clip-path: url(#clippath);
      }

      .cls-10 {
        fill: #e6e6e6;
      }
    </style>
    <clipPath id="clippath">
      <path class="cls-3" d="M89.68,5.54L0,4.56l4.25,111.9s7.19,1.96,17.81,1.96,17.97-3.1,17.97-3.1l-.82-45.74,47.37-.33c.33-3.92.49-7.84.49-11.76s-.16-8.17-.49-12.25l-47.86.33-.16-16.01,50.64-.16c.65-4.57.98-9.31.98-13.89,0-3.27-.16-6.7-.49-9.96Z"/>
    </clipPath>
    <linearGradient id="Degradado_sin_nombre_7" data-name="Degradado sin nombre 7" x1="45.6" y1="100.8" x2="44.33" y2="3.48" gradientUnits="userSpaceOnUse">
      <stop offset="0" stop-color="#fe9103"/>
      <stop offset="1" stop-color="#fcb431"/>
    </linearGradient>
    <clipPath id="clippath-1">
      <path class="cls-3" d="M183.25,5.54l-89.68-.98,4.25,111.9,84.46.98c.82-6.7,1.14-13.23,1.14-19.93,0-3.76-.16-7.51-.33-11.27l-49.5-.33-.82-16.34,47.37-.33c.33-3.92.49-7.84.49-11.76s-.16-8.17-.49-12.25l-47.86.33-.16-16.01,50.64-.16c.65-4.57.98-9.31.98-13.89,0-3.27-.16-6.7-.49-9.96Z"/>
    </clipPath>
    <linearGradient id="Degradado_sin_nombre_6" data-name="Degradado sin nombre 6" x1="135.15" y1="111.08" x2="142.74" y2="2.38" gradientUnits="userSpaceOnUse">
      <stop offset="0" stop-color="#006ed4"/>
      <stop offset="1" stop-color="#43c5e3"/>
    </linearGradient>
    <clipPath id="clippath-2">
      <path class="cls-3" d="M288.08,86.4c0-24.83-22.38-37.08-44.76-37.41-2.94-.16-21.56.49-21.56-4.57,0-8,17.64-8.33,22.38-8.33,11.11,0,22.87,2.61,32.83,7.19,1.63-6.37,2.45-12.58,2.45-19.11,0-3.92-.33-8-.82-11.92-12.09-4.74-26.95-7.68-39.86-7.68-23.2,0-54.89,12.09-54.89,39.53s24.99,34.79,48.19,36.27c4.25.33,23.36.16,23.36,7.19,0,6.21-19.11,5.88-22.87,5.88-13.4,0-27.77-4.57-39.53-10.94-1.8,6.53-2.94,13.07-2.94,19.93,0,3.76.33,7.51.98,11.27,12.42,5.72,29.24,10.94,42.64,10.94,25.97,0,54.4-6.21,54.4-38.23"/>
    </clipPath>
    <linearGradient id="Degradado_sin_nombre_8" data-name="Degradado sin nombre 8" x1="236.71" y1="111.43" x2="234.81" y2="-9.28" gradientUnits="userSpaceOnUse">
      <stop offset="0" stop-color="#fc2f77"/>
      <stop offset="1" stop-color="#ff82b5"/>
    </linearGradient>
  </defs>
  <g id="Capa_1-2" data-name="Capa 1">
    <g>
      <path class="cls-2" d="M347.44,87.6c-2.42-1.84-5.18-3.26-8.05-4.18-1.57,3.64-3.45,7.21-5.75,10.47-2.61-3.26-4.79-6.79-6.63-10.54-2.68.5-5.33,1.42-7.67,2.88,2.65,5.22,6.21,9.89,10.16,14.11l-.08,10.7c1.61.23,3.26.38,4.87.38,1.42,0,2.84-.11,4.22-.27l-.69-10.35c3.53-4.14,7.02-8.4,9.62-13.19"/>
      <path class="cls-2" d="M377.54,102.32c0-5.83-5.25-8.7-10.51-8.78-.69-.04-5.06.11-5.06-1.07,0-1.88,4.14-1.96,5.25-1.96,2.61,0,5.37.61,7.71,1.69.38-1.5.58-2.95.58-4.49,0-.92-.08-1.88-.19-2.8-2.84-1.11-6.33-1.8-9.36-1.8-5.44,0-12.88,2.84-12.88,9.28s5.87,8.17,11.31,8.51c1,.08,5.48.04,5.48,1.69,0,1.46-4.49,1.38-5.37,1.38-3.14,0-6.52-1.07-9.28-2.57-.42,1.53-.69,3.07-.69,4.68,0,.88.08,1.76.23,2.65,2.91,1.34,6.86,2.57,10.01,2.57,6.1,0,12.77-1.46,12.77-8.97"/>
      <path class="cls-2" d="M398.94,97.76c0,3.49-2.3,6.37-5.94,6.37-3.95,0-6.4-3.3-6.4-7.06,0-3.49,2.3-6.4,5.94-6.4,3.95,0,6.4,3.34,6.4,7.09M407.53,97.41c0-8.01-6.71-14.23-14.61-14.23s-14.61,6.21-14.61,14.23,6.71,14.19,14.61,14.19,14.61-6.17,14.61-14.19Z"/>
      <path class="cls-2" d="M432.91,109.03c-.15-2.49-.69-4.95-1.69-7.25-1.96,1.34-5.22,1.99-7.63,1.99-3.41,0-7.06-1.15-7.06-5.22,0-4.91,4.91-7.09,9.16-7.09,1.99,0,4.18.23,6.02,1.07.23-1.5.35-2.99.35-4.49,0-1.11-.04-2.19-.15-3.26-1.73-.54-3.53-.69-5.29-.69-9.01,0-17.95,4.37-17.95,14.57,0,8.55,6.1,12.46,14,12.46,3.34,0,7.21-.81,10.24-2.11"/>
      <path class="cls-2" d="M444.26,110.6l-.34-26.69c-.5-.04-.96-.04-1.46-.04-2.76,0-5.52.31-8.21.92l.65,26.15c.96.04,1.88.08,2.8.08,2.19,0,4.37-.15,6.56-.42"/>
      <path class="cls-2" d="M461.4,101.48c-1,.12-1.99.19-2.99.19-.84,0-1.3-.08-2.15-.15l2.68-8.63,2.45,8.59ZM473.14,109.49l-9.36-25.15c-1.23-.15-3.03-.23-4.29-.23-1.57,0-3.53.15-5.06.42l-9.39,24.85c2.42,1.46,5.56,1.92,8.36,1.99l1.65-5.52c1.23.15,2.11.23,3.37.23,1.38,0,2.8-.08,4.18-.27l1.53,5.87c2.99-.23,6.33-.88,9.01-2.19Z"/>
      <path class="cls-2" d="M494.99,106.38c0-.88-.04-1.76-.08-2.65l-11.62-.08-.35-19.17c-1.38-.42-2.95-.54-4.37-.54-1.57,0-3.14.19-4.68.61l1,26.27,19.82.23c.19-1.57.27-3.11.27-4.68Z"/>
      <path class="cls-10" d="M95.18,10.29l-89.68-.98,4.25,111.9s7.19,1.96,17.81,1.96,17.97-3.1,17.97-3.1l-.82-45.74,47.37-.33c.33-3.92.49-7.84.49-11.76s-.16-8.17-.49-12.25l-47.86.33-.16-16.01,50.64-.16c.65-4.57.98-9.31.98-13.89,0-3.27-.16-6.7-.49-9.96Z"/>
      <path class="cls-10" d="M188.75,10.29l-89.68-.98,4.25,111.9,84.46.98c.82-6.7,1.14-13.23,1.14-19.93,0-3.76-.16-7.51-.33-11.27l-49.5-.33-.82-16.34,47.37-.33c.33-3.92.49-7.84.49-11.76s-.16-8.17-.49-12.25l-47.86.33-.16-16.01,50.64-.16c.65-4.57.98-9.31.98-13.89,0-3.27-.16-6.7-.49-9.96Z"/>
      <path class="cls-10" d="M293.58,91.15c0-24.83-22.38-37.08-44.76-37.41-2.94-.16-21.56.49-21.56-4.57,0-8,17.64-8.33,22.38-8.33,11.11,0,22.87,2.61,32.83,7.19,1.63-6.37,2.45-12.58,2.45-19.11,0-3.92-.33-8-.82-11.92-12.09-4.74-26.95-7.68-39.86-7.68-23.2,0-54.89,12.09-54.89,39.53s24.99,34.8,48.19,36.27c4.25.33,23.36.16,23.36,7.19,0,6.21-19.11,5.88-22.87,5.88-13.4,0-27.77-4.57-39.53-10.94-1.8,6.53-2.94,13.07-2.94,19.93,0,3.76.33,7.51.98,11.27,12.42,5.72,29.24,10.94,42.64,10.94,25.97,0,54.4-6.21,54.4-38.23"/>
      <g class="cls-9">
        <rect class="cls-5" y="4.56" width="90.17" height="113.86"/>
      </g>
      <g class="cls-4">
        <rect class="cls-1" x="93.56" y="4.56" width="90.17" height="112.88"/>
      </g>
      <g class="cls-7">
        <rect class="cls-8" x="183.86" y="4.56" width="104.22" height="120.07"/>
      </g>
      <path class="cls-2" d="M340.71,10.93l-21.05-.23,1,26.27s1.69.46,4.18.46,4.22-.73,4.22-.73l-.19-10.74,11.12-.08c.08-.92.11-1.84.11-2.76s-.04-1.92-.11-2.88l-11.23.08-.04-3.76,11.89-.04c.15-1.07.23-2.19.23-3.26,0-.77-.04-1.57-.12-2.34Z"/>
      <path class="cls-2" d="M362.41,23.89c0,3.49-2.3,6.37-5.94,6.37-3.95,0-6.4-3.3-6.4-7.06,0-3.49,2.3-6.4,5.94-6.4,3.95,0,6.4,3.34,6.4,7.09M371,23.54c0-8.01-6.71-14.23-14.61-14.23s-14.61,6.21-14.61,14.23,6.71,14.19,14.61,14.19,14.61-6.17,14.61-14.19Z"/>
      <path class="cls-2" d="M388.83,19.25c0,2.99-2.95,3.91-5.45,3.91-.46,0-.92-.04-1.38-.12l-.11-6.67c.81-.34,1.57-.58,2.45-.58,2.34,0,4.49.69,4.49,3.45ZM397.27,31.94l-6.29-4.37c3.64-.92,5.68-4.68,5.68-8.24,0-6.17-4.18-9.01-9.89-9.01-1.69,0-3.41.23-5.02.77v-1.3c-.84-.08-1.65-.12-2.49-.12-2.19,0-4.41.27-6.52.88l.46,25.88c1.73.42,3.49.65,5.25.65,1.3,0,2.61-.11,3.91-.34l-.15-6.48,9.7,7.78c2.26-1.57,4.1-3.64,5.37-6.1Z"/>
      <path class="cls-2" d="M421.31,16.03c-.04-2.22-.42-4.45-1.15-6.56-3.76-.19-7.55-.31-11.31-.31-3.37,0-6.75.08-10.12.27-.84,2.03-1.42,4.22-1.46,6.4l7.44-.19-.23,20.86c1.15.12,2.34.15,3.49.15,1.88,0,3.8-.12,5.67-.42l-.08-20.28,7.75.08Z"/>
      <path class="cls-2" d="M433.62,27.61c-1,.12-1.99.19-2.99.19-.84,0-1.3-.08-2.15-.15l2.68-8.63,2.45,8.59ZM445.35,35.62l-9.36-25.15c-1.23-.15-3.03-.23-4.3-.23-1.57,0-3.53.15-5.06.42l-9.39,24.85c2.42,1.46,5.56,1.92,8.36,1.99l1.65-5.52c1.23.15,2.11.23,3.37.23,1.38,0,2.8-.08,4.18-.27l1.53,5.87c2.99-.23,6.33-.88,9.01-2.19Z"/>
      <path class="cls-2" d="M467.21,32.51c0-.88-.04-1.76-.08-2.65l-11.62-.08-.35-19.17c-1.38-.42-2.95-.54-4.37-.54-1.57,0-3.14.19-4.68.61l1,26.27,19.82.23c.19-1.57.27-3.11.27-4.68Z"/>
      <path class="cls-2" d="M489.79,10.93l-21.05-.23,1,26.27,19.82.23c.19-1.57.27-3.11.27-4.68,0-.88-.04-1.76-.08-2.65l-11.62-.08-.19-3.83,11.12-.08c.08-.92.11-1.84.11-2.76s-.04-1.92-.11-2.88l-11.23.08-.04-3.76,11.89-.04c.15-1.07.23-2.19.23-3.26,0-.77-.04-1.57-.12-2.34Z"/>
      <path class="cls-2" d="M515.1,35.16c-.15-2.49-.69-4.95-1.69-7.25-1.96,1.34-5.22,1.99-7.63,1.99-3.41,0-7.06-1.15-7.06-5.22,0-4.91,4.91-7.09,9.16-7.09,1.99,0,4.18.23,6.02,1.07.23-1.5.35-2.99.35-4.49,0-1.11-.04-2.19-.15-3.26-1.73-.54-3.53-.69-5.29-.69-9.01,0-17.95,4.37-17.95,14.57,0,8.55,6.1,12.46,14,12.46,3.34,0,7.21-.81,10.24-2.11"/>
      <path class="cls-2" d="M526.45,36.73l-.34-26.69c-.5-.04-.96-.04-1.46-.04-2.76,0-5.52.31-8.21.92l.65,26.15c.96.04,1.88.08,2.8.08,2.19,0,4.37-.15,6.56-.42"/>
      <path class="cls-2" d="M557.2,37.19l-.92-26.46c-.77-.08-1.57-.08-2.34-.08-2.38,0-4.75.19-7.09.61-1.15,4.45-2.72,8.78-4.68,12.92-1.99-4.26-3.49-8.67-4.64-13.19-1.73-.23-3.45-.34-5.18-.34-1.19,0-2.42.08-3.6.15l.15,25.77c2.53.65,5.14.96,7.75.92l1.23-.04-.35-10.28c1.19,2.61,2.76,5.02,4.75,7.09,2.22-2.49,3.91-5.48,5.29-8.51l.15,11.7c1.19.15,2.42.19,3.6.19,1.96,0,3.91-.15,5.87-.46"/>
      <path class="cls-2" d="M569.13,36.73l-.34-26.69c-.5-.04-.96-.04-1.46-.04-2.76,0-5.52.31-8.21.92l.65,26.15c.96.04,1.88.08,2.8.08,2.19,0,4.37-.15,6.56-.42"/>
      <path class="cls-2" d="M592.48,10.93l-21.05-.23,1,26.27,19.82.23c.19-1.57.27-3.11.27-4.68,0-.88-.04-1.76-.08-2.65l-11.62-.08-.19-3.83,11.12-.08c.08-.92.11-1.84.11-2.76s-.04-1.92-.11-2.88l-11.24.08-.04-3.76,11.89-.04c.15-1.07.23-2.19.23-3.26,0-.77-.04-1.57-.12-2.34Z"/>
      <path class="cls-2" d="M619.02,37.42l-.27-26.54c-1.26-.19-2.53-.27-3.83-.27-1.73,0-3.49.15-5.22.5l.34,13.38-6.33-13.96c-.84-.04-1.69-.08-2.53-.08-2.11,0-4.22.19-6.29.58l.04,25.77c1.8.31,3.64.42,5.48.42,1.15,0,2.34-.04,3.53-.15l-.46-12.23,6.6,12.42c1.69.23,3.37.38,5.02.38,1.34,0,2.65-.08,3.91-.23Z"/>
      <path class="cls-2" d="M644.4,16.03c-.04-2.22-.42-4.45-1.15-6.56-3.76-.19-7.55-.31-11.31-.31-3.37,0-6.75.08-10.12.27-.84,2.03-1.42,4.22-1.46,6.4l7.44-.19-.23,20.86c1.15.12,2.34.15,3.49.15,1.88,0,3.8-.12,5.67-.42l-.08-20.28,7.75.08Z"/>
      <path class="cls-2" d="M663.84,23.89c0,3.49-2.3,6.37-5.94,6.37-3.95,0-6.4-3.3-6.4-7.06,0-3.49,2.3-6.4,5.94-6.4,3.95,0,6.4,3.34,6.4,7.09M672.43,23.54c0-8.01-6.71-14.23-14.61-14.23s-14.61,6.21-14.61,14.23,6.71,14.19,14.61,14.19,14.61-6.17,14.61-14.19Z"/>
      <path class="cls-2" d="M341.7,47.06l-21.05-.23,1,26.27,19.82.23c.19-1.57.27-3.11.27-4.68,0-.88-.04-1.76-.08-2.65l-11.62-.08-.19-3.83,11.12-.08c.08-.92.11-1.84.11-2.76s-.04-1.92-.11-2.88l-11.23.08-.04-3.76,11.89-.04c.15-1.07.23-2.19.23-3.26,0-.77-.04-1.57-.12-2.34Z"/>
      <path class="cls-2" d="M367.43,64.58c0-5.83-5.25-8.7-10.51-8.78-.69-.04-5.06.11-5.06-1.07,0-1.88,4.14-1.96,5.25-1.96,2.61,0,5.37.61,7.71,1.69.38-1.5.58-2.95.58-4.49,0-.92-.08-1.88-.19-2.8-2.84-1.11-6.33-1.8-9.36-1.8-5.44,0-12.88,2.84-12.88,9.28s5.87,8.17,11.31,8.51c1,.08,5.48.04,5.48,1.69,0,1.46-4.49,1.38-5.37,1.38-3.14,0-6.52-1.07-9.28-2.57-.42,1.53-.69,3.07-.69,4.68,0,.88.08,1.76.23,2.65,2.91,1.34,6.86,2.57,10.01,2.57,6.1,0,12.77-1.46,12.77-8.97"/>
      <path class="cls-2" d="M392.82,71.29c-.15-2.49-.69-4.95-1.69-7.25-1.96,1.34-5.22,1.99-7.63,1.99-3.41,0-7.06-1.15-7.06-5.22,0-4.91,4.91-7.09,9.16-7.09,1.99,0,4.18.23,6.02,1.07.23-1.5.35-2.99.35-4.49,0-1.11-.04-2.19-.15-3.26-1.73-.54-3.53-.69-5.29-.69-9.01,0-17.95,4.37-17.95,14.57,0,8.55,6.1,12.46,14,12.46,3.34,0,7.21-.81,10.24-2.11"/>
      <path class="cls-2" d="M413.06,60.02c0,3.49-2.3,6.37-5.94,6.37-3.95,0-6.4-3.3-6.4-7.06,0-3.49,2.3-6.4,5.94-6.4,3.95,0,6.4,3.34,6.4,7.09M421.65,59.67c0-8.01-6.71-14.23-14.61-14.23s-14.61,6.21-14.61,14.23,6.71,14.19,14.61,14.19,14.61-6.17,14.61-14.19Z"/>
      <path class="cls-2" d="M444.47,68.64c0-.88-.04-1.76-.08-2.65l-11.62-.08-.35-19.17c-1.38-.42-2.95-.54-4.37-.54-1.57,0-3.14.19-4.68.61l1,26.27,19.82.23c.19-1.57.27-3.11.27-4.68Z"/>
      <path class="cls-2" d="M460.84,63.74c-1,.12-1.99.19-2.99.19-.84,0-1.3-.08-2.15-.15l2.68-8.63,2.45,8.59ZM472.58,71.75l-9.36-25.15c-1.23-.15-3.03-.23-4.3-.23-1.57,0-3.53.15-5.06.42l-9.39,24.85c2.42,1.46,5.56,1.92,8.36,1.99l1.65-5.52c1.23.15,2.11.23,3.37.23,1.38,0,2.8-.08,4.18-.27l1.53,5.87c2.99-.23,6.33-.88,9.01-2.19Z"/>
      <path class="cls-2" d="M489.45,55.38c0,2.99-2.95,3.91-5.45,3.91-.46,0-.92-.04-1.38-.12l-.11-6.67c.81-.34,1.57-.58,2.45-.58,2.34,0,4.49.69,4.49,3.45ZM497.89,68.07l-6.29-4.37c3.64-.92,5.68-4.68,5.68-8.24,0-6.17-4.18-9.01-9.89-9.01-1.69,0-3.41.23-5.02.77v-1.3c-.84-.08-1.65-.12-2.49-.12-2.19,0-4.41.27-6.52.88l.46,25.88c1.73.42,3.49.65,5.25.65,1.3,0,2.61-.11,3.91-.34l-.15-6.48,9.7,7.78c2.26-1.57,4.1-3.64,5.37-6.1Z"/>
      <rect class="cls-6" x="301.43" width="2.17" height="127.93"/>
    </g>
  </g>
</svg>