<?xml version="1.0" encoding="UTF-8"?>
<svg id="Capa_2" data-name="Capa 2" xmlns="http://www.w3.org/2000/svg" viewBox="0 0 532.76 51.52">
  <defs>
    <style>
      .cls-1 {
        fill: #fff;
      }
    </style>
  </defs>
  <g id="Capa_1-2" data-name="Capa 1">
    <g>
      <path class="cls-1" d="M10.64,42.63L0,12.01h5.57l7.86,22.92,7.53-22.92h5.24l7.53,22.87,7.91-22.87h5.4l-10.7,30.62h-5.29l-7.53-22.6-7.53,22.6h-5.35Z"/>
      <path class="cls-1" d="M59.11,42.63l-10.64-30.62h5.57l7.86,22.92,7.53-22.92h5.24l7.53,22.87,7.91-22.87h5.4l-10.7,30.62h-5.29l-7.53-22.6-7.53,22.6h-5.35Z"/>
      <path class="cls-1" d="M107.58,42.63l-10.64-30.62h5.57l7.86,22.92,7.53-22.92h5.24l7.53,22.87,7.91-22.87h5.4l-10.7,30.62h-5.29l-7.53-22.6-7.53,22.6h-5.35Z"/>
      <path class="cls-1" d="M144.96,42.35v-7.2h6.66v7.2h-6.66Z"/>
      <path class="cls-1" d="M156.81,16.81v-4.8h5.73v-2.13c0-3.24.71-5.69,2.13-7.37,1.42-1.67,3.93-2.51,7.53-2.51h3.49v4.64h-2.84c-1.89,0-3.2.46-3.93,1.36-.73.91-1.09,2.2-1.09,3.88v2.13h7.86v4.8h-7.86v25.54h-5.29v-25.54h-5.73Z"/>
      <path class="cls-1" d="M193.21,42.96c-2.44,0-4.55-.27-6.33-.82-1.78-.55-3.21-1.27-4.28-2.18-1.07-.91-1.94-2.06-2.59-3.47-.66-1.4-1.1-2.84-1.34-4.31s-.35-3.16-.35-5.05c0-2.36.21-4.43.63-6.19.42-1.76,1.15-3.41,2.18-4.94,1.04-1.53,2.57-2.69,4.58-3.49,2.02-.8,4.48-1.2,7.4-1.2,1.75,0,3.29.18,4.64.55,1.35.36,2.47.82,3.38,1.36.91.55,1.67,1.3,2.29,2.27.62.96,1.09,1.89,1.42,2.78.33.89.57,2.02.74,3.38.16,1.36.26,2.57.3,3.63.04,1.06.04,2.37,0,3.93h-22.43c.18,3.02.97,5.3,2.37,6.85,1.4,1.55,3.87,2.32,7.4,2.32,2.26,0,4.09-.25,5.51-.74s2.8-1.25,4.15-2.27l2.84,3.71c-3.31,2.58-7.48,3.88-12.5,3.88ZM192.94,15.99c-3.28,0-5.6.72-6.99,2.16-1.38,1.44-2.2,3.56-2.46,6.36h17.36c-.07-1.16-.16-2.08-.25-2.76-.09-.67-.29-1.43-.6-2.27-.31-.84-.73-1.47-1.26-1.91s-1.28-.81-2.26-1.12c-.98-.31-2.17-.46-3.55-.46Z"/>
      <path class="cls-1" d="M222.8,42.9c-5.2,0-9.57-1.18-13.1-3.55l2.73-4.15c3.17,2.04,6.73,3.06,10.7,3.06,2.69,0,4.58-.3,5.68-.9s1.64-1.79,1.64-3.58c0-1.38-.49-2.34-1.47-2.87-.98-.53-2.93-1.05-5.84-1.56-1.67-.29-3.01-.55-4.01-.79-1-.24-2.07-.59-3.22-1.06-1.15-.47-2.01-1.01-2.59-1.61-.58-.6-1.07-1.4-1.47-2.4-.4-1-.6-2.17-.6-3.52,0-2.87.94-5.04,2.81-6.5,1.87-1.45,4.9-2.18,9.09-2.18,4.66,0,8.51.89,11.57,2.67l-2.51,4.37c-2.58-1.42-5.57-2.13-8.95-2.13-2.51,0-4.26.31-5.24.93-.98.62-1.47,1.56-1.47,2.84,0,1.35.47,2.3,1.42,2.87.95.56,2.75,1.08,5.4,1.56,1.86.33,3.26.6,4.2.82.95.22,2.03.56,3.25,1.01,1.22.46,2.11.97,2.67,1.56.56.58,1.05,1.36,1.47,2.32.42.96.63,2.12.63,3.47,0,3.42-.99,5.83-2.97,7.23-1.98,1.4-5.25,2.1-9.8,2.1Z"/>
      <path class="cls-1" d="M248.67,42.41c-2.51,0-4.28-.59-5.29-1.77-1.02-1.18-1.53-3.23-1.53-6.14V0h5.24v33.9c0,1.49.21,2.49.63,3,.42.51,1.34.76,2.76.76h1.2v4.64c-.66.07-1.66.11-3,.11Z"/>
      <path class="cls-1" d="M266.13,42.9c-4.08,0-6.9-.81-8.49-2.43s-2.37-3.87-2.37-6.74c0-4.29,1.43-7.22,4.28-8.79,2.86-1.56,8.11-2.35,15.75-2.35h1.64c-.07-2.36-.59-4.01-1.55-4.94-.96-.93-2.97-1.39-6.03-1.39-3.24,0-6.22.86-8.95,2.57l-2.78-4.15c1.24-.84,2.97-1.61,5.21-2.32,2.24-.71,4.58-1.06,7.01-1.06,2.58,0,4.67.22,6.28.65,1.6.44,2.84,1.18,3.71,2.24.87,1.06,1.46,2.29,1.77,3.71.31,1.42.46,3.27.46,5.57v10.81c0,1.49.15,2.43.46,2.81.31.38,1.16.57,2.54.57v4.64c-.25.07-.98.11-2.18.11-1.64,0-2.81-.25-3.52-.76-.71-.51-1.26-1.4-1.67-2.67-1.86,2.62-5.71,3.93-11.57,3.93ZM267.01,38.32c3.49,0,6.02-.74,7.59-2.21s2.35-3.85,2.35-7.12v-1.86h-1.36c-4.22,0-7.41.19-9.55.57-2.15.38-3.63,1-4.45,1.86-.82.86-1.23,2.12-1.23,3.79s.49,2.97,1.47,3.77c.98.8,2.71,1.2,5.18,1.2Z"/>
      <path class="cls-1" d="M291.3,42.35V12.28l4.2-.27.55,3.71c.62-1.13,1.84-2.08,3.66-2.87,1.82-.78,4.02-1.19,6.6-1.23v5.35c-3.46.04-5.93.86-7.42,2.48-1.49,1.62-2.24,3.92-2.24,6.9v15.99h-5.35Z"/>
      <path class="cls-1" d="M311.82,8.35V1.91h5.35v6.44h-5.35ZM311.87,42.35V12.01h5.24v30.35h-5.24Z"/>
      <path class="cls-1" d="M338.78,42.96c-5.24,0-9.04-1.31-11.41-3.93-2.37-2.62-3.55-6.59-3.55-11.9s1.18-9.28,3.55-11.9c2.37-2.62,6.17-3.93,11.41-3.93s9.1,1.31,11.46,3.93c2.37,2.62,3.55,6.59,3.55,11.9s-1.18,9.28-3.55,11.9c-2.37,2.62-6.19,3.93-11.46,3.93ZM331.38,35.42c1.47,1.82,3.94,2.73,7.4,2.73s5.92-.91,7.4-2.73c1.47-1.82,2.21-4.55,2.21-8.19s-.74-6.36-2.21-8.16c-1.47-1.8-3.94-2.7-7.4-2.7s-5.92.9-7.4,2.7-2.21,4.52-2.21,8.16.74,6.37,2.21,8.19Z"/>
      <path class="cls-1" d="M356.36,51.52v-4.37h.44c1.56-.04,2.57-.35,3.03-.93.45-.58.68-1.77.68-3.55V12.01h5.24v30.62c0,3.46-.56,5.8-1.69,7.04-1.13,1.24-3.37,1.86-6.71,1.86h-.98ZM360.45,8.35V1.91h5.35v6.44h-5.35Z"/>
      <path class="cls-1" d="M382.99,42.9c-4.08,0-6.9-.81-8.49-2.43s-2.37-3.87-2.37-6.74c0-4.29,1.43-7.22,4.28-8.79,2.86-1.56,8.11-2.35,15.75-2.35h1.64c-.07-2.36-.59-4.01-1.55-4.94-.96-.93-2.97-1.39-6.03-1.39-3.24,0-6.22.86-8.95,2.57l-2.78-4.15c1.24-.84,2.97-1.61,5.21-2.32,2.24-.71,4.58-1.06,7.01-1.06,2.58,0,4.67.22,6.28.65,1.6.44,2.84,1.18,3.71,2.24.87,1.06,1.46,2.29,1.77,3.71.31,1.42.46,3.27.46,5.57v10.81c0,1.49.15,2.43.46,2.81.31.38,1.16.57,2.54.57v4.64c-.25.07-.98.11-2.18.11-1.64,0-2.81-.25-3.52-.76-.71-.51-1.26-1.4-1.67-2.67-1.86,2.62-5.71,3.93-11.57,3.93ZM383.86,38.32c3.49,0,6.02-.74,7.59-2.21s2.35-3.85,2.35-7.12v-1.86h-1.36c-4.22,0-7.41.19-9.55.57-2.15.38-3.63,1-4.45,1.86-.82.86-1.23,2.12-1.23,3.79s.49,2.97,1.47,3.77c.98.8,2.71,1.2,5.18,1.2Z"/>
      <path class="cls-1" d="M407.77,42.35v-7.2h6.66v7.2h-6.66Z"/>
      <path class="cls-1" d="M434.19,42.9c-5.5,0-9.33-1.36-11.52-4.07-2.18-2.71-3.28-6.61-3.28-11.71s1.1-9.05,3.3-11.76c2.2-2.71,6.1-4.07,11.71-4.07,4.84,0,8.61,1.51,11.3,4.53l-3.88,3.66c-1.96-2.04-4.44-3.06-7.42-3.06-3.57,0-6.07.9-7.5,2.7s-2.16,4.5-2.16,8.1.71,6.37,2.13,8.19c1.42,1.82,3.93,2.73,7.53,2.73,2.84,0,5.4-1.04,7.7-3.11l3.55,3.38c-1.67,1.53-3.37,2.66-5.08,3.38-1.71.73-3.84,1.09-6.39,1.09Z"/>
      <path class="cls-1" d="M464.32,42.96c-5.24,0-9.04-1.31-11.41-3.93-2.37-2.62-3.55-6.59-3.55-11.9s1.18-9.28,3.55-11.9c2.37-2.62,6.17-3.93,11.41-3.93s9.1,1.31,11.46,3.93c2.37,2.62,3.55,6.59,3.55,11.9s-1.18,9.28-3.55,11.9c-2.37,2.62-6.19,3.93-11.46,3.93ZM456.92,35.42c1.47,1.82,3.94,2.73,7.4,2.73s5.92-.91,7.4-2.73c1.47-1.82,2.21-4.55,2.21-8.19s-.74-6.36-2.21-8.16c-1.47-1.8-3.94-2.7-7.4-2.7s-5.92.9-7.4,2.7-2.21,4.52-2.21,8.16.74,6.37,2.21,8.19Z"/>
      <path class="cls-1" d="M485.71,42.35V12.28l4.2-.27.44,2.89c1.46-2.4,5.08-3.6,10.86-3.6,3.02,0,5.2.33,6.55.98,1.35.66,2.26,1.6,2.73,2.84,1.67-2.55,5.55-3.82,11.62-3.82,1.89,0,3.49.21,4.8.63,1.31.42,2.35.96,3.11,1.61.76.66,1.35,1.56,1.75,2.7.4,1.15.66,2.28.79,3.41.13,1.13.19,2.53.19,4.2v18.5h-5.35v-17.47c0-1.2-.03-2.13-.08-2.78s-.2-1.4-.44-2.24c-.24-.84-.59-1.46-1.06-1.86-.47-.4-1.16-.75-2.05-1.04-.89-.29-2.01-.44-3.36-.44-1.82,0-3.31.21-4.48.63-1.17.42-2.04,1.06-2.62,1.94-.58.87-.97,1.8-1.17,2.78s-.3,2.2-.3,3.66v16.81h-5.24v-17.47c0-1.49-.05-2.64-.16-3.44-.11-.8-.37-1.64-.79-2.51-.42-.87-1.13-1.49-2.13-1.86-1-.36-2.32-.55-3.96-.55-1.82,0-3.31.21-4.48.63-1.17.42-2.03,1.06-2.59,1.94-.57.87-.95,1.8-1.15,2.78-.2.98-.3,2.2-.3,3.66v16.81h-5.35Z"/>
    </g>
  </g>
</svg>